<svg xmlns="http://www.w3.org/2000/svg" xmlns:xlink="http://www.w3.org/1999/xlink" xmlns:lucid="lucid" width="1461.64" height="880"><g transform="translate(-102.73333333333323 -20)" lucid:page-tab-id="0_0"><path d="M600 340c-20.43 0-37 44.77-37 100s16.57 100 37 100H267c-20.43 0-37-44.77-37-100s16.57-100 37-100z" stroke="#000" stroke-width="2" fill="#c7e8ac"/><use xlink:href="#a" transform="matrix(1,0,0,1,235,345) translate(127.575 97.525)"/><use xlink:href="#b" transform="matrix(1,0,0,1,235,345) translate(142.575 97.525)"/><path d="M340 620h160v120H340z" stroke="#000" stroke-width="2" fill="#ffc374"/><use xlink:href="#c" transform="matrix(1,0,0,1,345,625) translate(19.049999999999997 48.775)"/><use xlink:href="#d" transform="matrix(1,0,0,1,345,625) translate(53.525 70.375)"/><path d="M365 120h100v100c-16.7-16.7-27.1-16.7-33.4-16.7-10 0-23.3 16.7-33.3 16.7-6.2 0-16.7 0-33.3-16.7z" stroke="#000" stroke-width="2" fill="#fff"/><use xlink:href="#e" transform="matrix(1,0,0,1,370,125) translate(13.099999999999994 30.5875)"/><use xlink:href="#f" transform="matrix(1,0,0,1,370,125) translate(0.5749999999999957 52.1875)"/><use xlink:href="#g" transform="matrix(1,0,0,1,370,125) translate(40.574999999999996 52.1875)"/><path d="M415 213.63V320.5" stroke="#000" stroke-width="2" fill="none"/><path d="M416 213.66h-2v-.37l2-1.33z"/><path d="M415 335.76l-4.64-14.26h9.28z" stroke="#000" stroke-width="2"/><path d="M300 40h240v60H300z" stroke="#000" stroke-opacity="0" stroke-width="2" fill="#ffeca9"/><use xlink:href="#h" transform="matrix(1,0,0,1,305,45) translate(8.174999999999997 17.525)"/><use xlink:href="#i" transform="matrix(1,0,0,1,305,45) translate(28.174999999999997 17.525)"/><use xlink:href="#j" transform="matrix(1,0,0,1,305,45) translate(84.075 17.525)"/><use xlink:href="#f" transform="matrix(1,0,0,1,305,45) translate(152.875 17.525)"/><use xlink:href="#k" transform="matrix(1,0,0,1,305,45) translate(192.875 17.525)"/><use xlink:href="#b" transform="matrix(1,0,0,1,305,45) translate(86.075 39.125)"/><path d="M338 680H178.5" stroke="#000" stroke-width="2" fill="none"/><path d="M339 681h-1.03v-2H339z"/><path d="M163.24 680l14.26-4.64v9.28z" stroke="#000" stroke-width="2"/><path d="M160 679V170h185.5M160 678.97V680" stroke="#000" stroke-width="2" fill="none"/><path d="M360.76 170l-14.26 4.64v-9.28z" stroke="#000" stroke-width="2"/><path d="M440 280h220v40H440z" stroke="#000" stroke-opacity="0" stroke-width="2" fill="#ffeca9"/><use xlink:href="#l" transform="matrix(1,0,0,1,445,285) translate(6.074999999999989 18.15)"/><use xlink:href="#m" transform="matrix(1,0,0,1,445,285) translate(26.07499999999999 18.15)"/><use xlink:href="#n" transform="matrix(1,0,0,1,445,285) translate(62.02499999999999 18.15)"/><use xlink:href="#o" transform="matrix(1,0,0,1,445,285) translate(72.02499999999999 18.15)"/><use xlink:href="#p" transform="matrix(1,0,0,1,445,285) translate(125.975 18.15)"/><use xlink:href="#q" transform="matrix(1,0,0,1,445,285) translate(169.925 18.15)"/><path d="M375 340h80v60h-80z" stroke="#000" stroke-width="2" fill="#fff"/><use xlink:href="#r" transform="matrix(1,0,0,1,380,345) translate(1.0249999999999986 17.525)"/><use xlink:href="#s" transform="matrix(1,0,0,1,380,345) translate(1.0999999999999943 39.125)"/><path d="M326.25 480h177.5v60h-177.5zm17.75 0v60m-17.75-42.25h177.5" stroke="#000" stroke-width="2" fill="#ffeca9"/><use xlink:href="#t" transform="matrix(1,0,0,1,349,502.75) translate(34.574999999999996 20.5875)"/><path d="M373 370h-29.58v90.5" stroke="#000" stroke-width="2" fill="none"/><path d="M374 371h-1.03v-2H374z"/><path d="M343.42 475.76l-4.64-14.26h9.27z" stroke="#000" stroke-width="2"/><path d="M457 370h23.5" stroke="#000" stroke-width="2" fill="none"/><path d="M457.03 371H456v-2h1.03z"/><path d="M495.76 370l-14.26 4.64v-9.28z" stroke="#000" stroke-width="2"/><path d="M500 350h60v40h-60z" stroke="#000" stroke-width="2" fill="#fff"/><use xlink:href="#u" transform="matrix(1,0,0,1,505,355) translate(-0.9000000000000021 18.6)"/><path d="M1098 420h-95.5v35h-78" stroke="#000" stroke-width="2" fill="none"/><path d="M1099 421h-1.03v-2h1.03z"/><path d="M909.24 455l14.27-4.64v9.28z" stroke="#000" stroke-width="2"/><path d="M881 430c13.25 0 24 11.2 24 25s-10.75 25-24 25h-72c-13.25 0-24-11.2-24-25s10.75-25 24-25z" stroke="#000" stroke-width="2" fill="#c1e4f7"/><use xlink:href="#v" transform="matrix(1,0,0,1,789.9999999999999,435) translate(14.224999999999994 24.4)"/><use xlink:href="#w" transform="matrix(1,0,0,1,789.9999999999999,435) translate(66.775 24.4)"/><path d="M1100 330h257.5v220H1100z" stroke="#000" stroke-width="2" fill="#ffc374"/><use xlink:href="#x" transform="matrix(1,0,0,1,1106,336) translate(65.55 14.4)"/><use xlink:href="#y" transform="matrix(1,0,0,1,1106,336) translate(127.55 14.4)"/><path d="M880 360h240v60H880z" stroke="#000" stroke-opacity="0" stroke-width="2" fill="#fff" fill-opacity="0"/><use xlink:href="#z" transform="matrix(1,0,0,1,885,365) translate(22.224999999999994 30.025)"/><use xlink:href="#A" transform="matrix(1,0,0,1,885,365) translate(118.975 30.025)"/><use xlink:href="#B" transform="matrix(1,0,0,1,885,365) translate(159.875 30.025)"/><path d="M1172.5 460H1285v80c-18.8-13.36-30.5-13.36-37.58-13.36-11.25 0-26.2 13.36-37.46 13.36-6.97 0-18.8 0-37.46-13.36z" stroke="#000" stroke-width="2" fill="#fff"/><use xlink:href="#C" transform="matrix(1,0,0,1,1177.5,465) translate(15.024999999999999 21.525)"/><use xlink:href="#s" transform="matrix(1,0,0,1,1177.5,465) translate(17.599999999999994 43.125)"/><path d="M672.5 442v13h93" stroke="#000" stroke-width="2" fill="none"/><path d="M673.5 442.03h-2V441h2z"/><path d="M780.76 455l-14.27 4.64v-9.28z" stroke="#000" stroke-width="2"/><path d="M562 380h32.63v-41h77.87v21.5" stroke="#000" stroke-width="2" fill="none"/><path d="M562.03 381H561v-2h1.03z"/><path d="M672.5 375.76l-4.64-14.26h9.28z" stroke="#000" stroke-width="2"/><path d="M1076.25 260h311.25v40h-311.25z" stroke="#000" stroke-opacity="0" stroke-width="2" fill="#ffeca9"/><use xlink:href="#D" transform="matrix(1,0,0,1,1081.25,265) translate(5.149999999999977 18.15)"/><use xlink:href="#E" transform="matrix(1,0,0,1,1081.25,265) translate(25.149999999999977 18.15)"/><use xlink:href="#F" transform="matrix(1,0,0,1,1081.25,265) translate(86.04999999999998 18.15)"/><use xlink:href="#G" transform="matrix(1,0,0,1,1081.25,265) translate(163 18.15)"/><use xlink:href="#H" transform="matrix(1,0,0,1,1081.25,265) translate(181.95 18.15)"/><use xlink:href="#y" transform="matrix(1,0,0,1,1081.25,265) translate(243.95 18.15)"/><path d="M1098 420h-39v-1h169.75v21.5" stroke="#000" stroke-width="2" fill="none"/><path d="M1099 421h-1.03v-2h1.03z"/><path d="M1228.75 455.76l-4.64-14.26h9.3z" stroke="#000" stroke-width="2"/><path d="M1228.75 552v108.5" stroke="#000" stroke-width="2" fill="none"/><path d="M1229.75 552.03h-2V551h2z"/><path d="M1228.75 675.76l-4.64-14.26h9.3z" stroke="#000" stroke-width="2"/><path d="M913.13 680h160v120h-160z" stroke="#000" stroke-width="2" fill="#99d5ca"/><g><use xlink:href="#I" transform="matrix(1,0,0,1,918.125,685) translate(54.025 59.0875)"/><use xlink:href="#J" transform="matrix(1,0,0,1,918.125,685) translate(85.975 59.0875)"/></g><path d="M1148.75 680h160v120h-160z" stroke="#000" stroke-width="2" fill="#99d5ca"/><g><use xlink:href="#I" transform="matrix(1,0,0,1,1153.75,685) translate(54.025 59.0875)"/><use xlink:href="#K" transform="matrix(1,0,0,1,1153.75,685) translate(85.975 59.0875)"/></g><path d="M1384.38 680h160v120h-160z" stroke="#000" stroke-width="2" fill="#99d5ca"/><g><use xlink:href="#I" transform="matrix(1,0,0,1,1389.375,685) translate(54.025 59.0875)"/><use xlink:href="#L" transform="matrix(1,0,0,1,1389.375,685) translate(85.975 59.0875)"/></g><path d="M1227.75 613.55H993.12v46.95M1227.72 613.55h1.03" stroke="#000" stroke-width="2" fill="none"/><path d="M993.13 675.76l-4.64-14.26h9.26z" stroke="#000" stroke-width="2"/><path d="M1229.75 615h234.63v45.5M1229.78 615h-1.03" stroke="#000" stroke-width="2" fill="none"/><path d="M1464.38 675.76l-4.64-14.26h9.27z" stroke="#000" stroke-width="2"/><path d="M1106.25 840h251.25v40h-251.25z" stroke="#000" stroke-opacity="0" stroke-width="2" fill="#ffeca9"/><g><use xlink:href="#M" transform="matrix(1,0,0,1,1111.25,845) translate(7.599999999999994 18.15)"/><use xlink:href="#N" transform="matrix(1,0,0,1,1111.25,845) translate(27.599999999999994 18.15)"/><use xlink:href="#O" transform="matrix(1,0,0,1,1111.25,845) translate(59.55 18.15)"/><use xlink:href="#P" transform="matrix(1,0,0,1,1111.25,845) translate(115.5 18.15)"/><use xlink:href="#Q" transform="matrix(1,0,0,1,1111.25,845) translate(140.5 18.15)"/><use xlink:href="#R" transform="matrix(1,0,0,1,1111.25,845) translate(184.5 18.15)"/></g><path d="M730 380h240v60H730z" stroke="#000" stroke-opacity="0" stroke-width="2" fill="#fff" fill-opacity="0"/><g><use xlink:href="#S" transform="matrix(1,0,0,1,735,385) translate(68.07499999999999 30.025)"/><use xlink:href="#T" transform="matrix(1,0,0,1,735,385) translate(125.975 30.025)"/></g><path d="M628.25 380h88.5v60h-88.5z" stroke="#000" stroke-width="2" fill="#fff"/><g><use xlink:href="#U" transform="matrix(1,0,0,1,633.2499999999999,385) translate(4.049999999999997 30.025)"/></g><path d="M133.73 80" stroke="#000" stroke-width="2" fill="none"/><path d="M130.5 80l-14.27 4.64v-9.28z" stroke="#000" stroke-width="2"/><defs><path d="M30-248c118-7 216 8 213 122C240-48 200 0 122 0H30v-248zM63-27c89 8 146-16 146-99s-60-101-146-95v194" id="V"/><path d="M212-179c-10-28-35-45-73-45-59 0-87 40-87 99 0 60 29 101 89 101 43 0 62-24 78-52l27 14C228-24 195 4 139 4 59 4 22-46 18-125c-6-104 99-153 187-111 19 9 31 26 39 46" id="W"/><path d="M100-194c63 0 86 42 84 106H49c0 40 14 67 53 68 26 1 43-12 49-29l28 8c-11 28-37 45-77 45C44 4 14-33 15-96c1-61 26-98 85-98zm52 81c6-60-76-77-97-28-3 7-6 17-6 28h103" id="X"/><path d="M108 0H70L1-190h34L89-25l56-165h34" id="Y"/><g id="b"><use transform="matrix(0.05,0,0,0.05,0,0)" xlink:href="#V"/><use transform="matrix(0.05,0,0,0.05,12.950000000000001,0)" xlink:href="#W"/><use transform="matrix(0.05,0,0,0.05,25.900000000000002,0)" xlink:href="#V"/><use transform="matrix(0.05,0,0,0.05,38.85,0)" xlink:href="#X"/><use transform="matrix(0.05,0,0,0.05,48.85,0)" xlink:href="#Y"/></g><path d="M30-248c87 1 191-15 191 75 0 78-77 80-158 76V0H30v-248zm33 125c57 0 124 11 124-50 0-59-68-47-124-48v98" id="Z"/><path d="M84 4C-5 8 30-112 23-190h32v120c0 31 7 50 39 49 72-2 45-101 50-169h31l1 190h-30c-1-10 1-25-2-33-11 22-28 36-60 37" id="aa"/><path d="M115-194c55 1 70 41 70 98S169 2 115 4C84 4 66-9 55-30l1 105H24l-1-265h31l2 30c10-21 28-34 59-34zm-8 174c40 0 45-34 45-75s-6-73-45-74c-42 0-51 32-51 76 0 43 10 73 51 73" id="ab"/><path d="M59-47c-2 24 18 29 38 22v24C64 9 27 4 27-40v-127H5v-23h24l9-43h21v43h35v23H59v120" id="ac"/><path d="M240 0l2-218c-23 76-54 145-80 218h-23L58-218 59 0H30v-248h44l77 211c21-75 51-140 76-211h43V0h-30" id="ad"/><path d="M141-36C126-15 110 5 73 4 37 3 15-17 15-53c-1-64 63-63 125-63 3-35-9-54-41-54-24 1-41 7-42 31l-33-3c5-37 33-52 76-52 45 0 72 20 72 64v82c-1 20 7 32 28 27v20c-31 9-61-2-59-35zM48-53c0 20 12 33 32 33 41-3 63-29 60-74-43 2-92-5-92 41" id="ae"/><path d="M135-143c-3-34-86-38-87 0 15 53 115 12 119 90S17 21 10-45l28-5c4 36 97 45 98 0-10-56-113-15-118-90-4-57 82-63 122-42 12 7 21 19 24 35" id="af"/><path d="M114-163C36-179 61-72 57 0H25l-1-190h30c1 12-1 29 2 39 6-27 23-49 58-41v29" id="ag"/><g id="c"><use transform="matrix(0.05,0,0,0.05,0,0)" xlink:href="#Z"/><use transform="matrix(0.05,0,0,0.05,12,0)" xlink:href="#aa"/><use transform="matrix(0.05,0,0,0.05,22,0)" xlink:href="#ab"/><use transform="matrix(0.05,0,0,0.05,32,0)" xlink:href="#ab"/><use transform="matrix(0.05,0,0,0.05,42,0)" xlink:href="#X"/><use transform="matrix(0.05,0,0,0.05,52,0)" xlink:href="#ac"/><use transform="matrix(0.05,0,0,0.05,57,0)" xlink:href="#ad"/><use transform="matrix(0.05,0,0,0.05,71.95,0)" xlink:href="#ae"/><use transform="matrix(0.05,0,0,0.05,81.95,0)" xlink:href="#af"/><use transform="matrix(0.05,0,0,0.05,90.95,0)" xlink:href="#ac"/><use transform="matrix(0.05,0,0,0.05,95.95,0)" xlink:href="#X"/><use transform="matrix(0.05,0,0,0.05,105.95,0)" xlink:href="#ag"/></g><path d="M233-177c-1 41-23 64-60 70L243 0h-38l-65-103H63V0H30v-248c88 3 205-21 203 71zM63-129c60-2 137 13 137-47 0-61-80-42-137-45v92" id="ah"/><path d="M100-194c62-1 85 37 85 99 1 63-27 99-86 99S16-35 15-95c0-66 28-99 85-99zM99-20c44 1 53-31 53-75 0-43-8-75-51-75s-53 32-53 75 10 74 51 75" id="ai"/><g id="d"><use transform="matrix(0.05,0,0,0.05,0,0)" xlink:href="#ah"/><use transform="matrix(0.05,0,0,0.05,12.950000000000001,0)" xlink:href="#X"/><use transform="matrix(0.05,0,0,0.05,22.950000000000003,0)" xlink:href="#ab"/><use transform="matrix(0.05,0,0,0.05,32.95,0)" xlink:href="#ai"/></g><path d="M206 0h-36l-40-164L89 0H53L-1-190h32L70-26l43-164h34l41 164 42-164h31" id="aj"/><path d="M106-169C34-169 62-67 57 0H25v-261h32l-1 103c12-21 28-36 61-36 89 0 53 116 60 194h-32v-121c2-32-8-49-39-48" id="ak"/><path d="M24-231v-30h32v30H24zM24 0v-190h32V0H24" id="al"/><path d="M24 0v-261h32V0H24" id="am"/><g id="e"><use transform="matrix(0.05,0,0,0.05,0,0)" xlink:href="#aj"/><use transform="matrix(0.05,0,0,0.05,12.950000000000001,0)" xlink:href="#ak"/><use transform="matrix(0.05,0,0,0.05,22.950000000000003,0)" xlink:href="#al"/><use transform="matrix(0.05,0,0,0.05,26.900000000000002,0)" xlink:href="#ac"/><use transform="matrix(0.05,0,0,0.05,31.900000000000002,0)" xlink:href="#X"/><use transform="matrix(0.05,0,0,0.05,41.900000000000006,0)" xlink:href="#am"/><use transform="matrix(0.05,0,0,0.05,45.85000000000001,0)" xlink:href="#al"/><use transform="matrix(0.05,0,0,0.05,49.80000000000001,0)" xlink:href="#af"/><use transform="matrix(0.05,0,0,0.05,58.80000000000001,0)" xlink:href="#ac"/></g><path d="M85-194c31 0 48 13 60 33l-1-100h32l1 261h-30c-2-10 0-23-3-31C134-8 116 4 85 4 32 4 16-35 15-94c0-66 23-100 70-100zm9 24c-40 0-46 34-46 75 0 40 6 74 45 74 42 0 51-32 51-76 0-42-9-74-50-73" id="an"/><g id="f"><use transform="matrix(0.05,0,0,0.05,0,0)" xlink:href="#an"/><use transform="matrix(0.05,0,0,0.05,10,0)" xlink:href="#ae"/><use transform="matrix(0.05,0,0,0.05,20,0)" xlink:href="#ac"/><use transform="matrix(0.05,0,0,0.05,25,0)" xlink:href="#ae"/></g><path d="M87 75C49 33 22-17 22-94c0-76 28-126 65-167h31c-38 41-64 92-64 168S80 34 118 75H87" id="ao"/><path d="M185-189c-5-48-123-54-124 2 14 75 158 14 163 119 3 78-121 87-175 55-17-10-28-26-33-46l33-7c5 56 141 63 141-1 0-78-155-14-162-118-5-82 145-84 179-34 5 7 8 16 11 25" id="ap"/><path d="M137 0h-34L2-248h35l83 218 83-218h36" id="aq"/><path d="M33-261c38 41 65 92 65 168S71 34 33 75H2C39 34 66-17 66-93S39-220 2-261h31" id="ar"/><g id="g"><use transform="matrix(0.05,0,0,0.05,0,0)" xlink:href="#ao"/><use transform="matrix(0.05,0,0,0.05,5.95,0)" xlink:href="#W"/><use transform="matrix(0.05,0,0,0.05,18.900000000000002,0)" xlink:href="#ap"/><use transform="matrix(0.05,0,0,0.05,30.900000000000002,0)" xlink:href="#aq"/><use transform="matrix(0.05,0,0,0.05,42.900000000000006,0)" xlink:href="#ar"/></g><path d="M27 0v-27h64v-190l-56 39v-29l58-41h29v221h61V0H27" id="as"/><path d="M33-154v-36h34v36H33zM33 0v-36h34V0H33" id="at"/><g id="h"><use transform="matrix(0.05,0,0,0.05,0,0)" xlink:href="#as"/><use transform="matrix(0.05,0,0,0.05,10,0)" xlink:href="#at"/></g><path d="M33 0v-248h34V0H33" id="au"/><path d="M210-169c-67 3-38 105-44 169h-31v-121c0-29-5-50-35-48C34-165 62-65 56 0H25l-1-190h30c1 10-1 24 2 32 10-44 99-50 107 0 11-21 27-35 58-36 85-2 47 119 55 194h-31v-121c0-29-5-49-35-48" id="av"/><g id="i"><use transform="matrix(0.05,0,0,0.05,0,0)" xlink:href="#au"/><use transform="matrix(0.05,0,0,0.05,5,0)" xlink:href="#av"/><use transform="matrix(0.05,0,0,0.05,19.950000000000003,0)" xlink:href="#ab"/><use transform="matrix(0.05,0,0,0.05,29.950000000000003,0)" xlink:href="#ai"/><use transform="matrix(0.05,0,0,0.05,39.95,0)" xlink:href="#ag"/><use transform="matrix(0.05,0,0,0.05,45.900000000000006,0)" xlink:href="#ac"/></g><g id="j"><use transform="matrix(0.05,0,0,0.05,0,0)" xlink:href="#aj"/><use transform="matrix(0.05,0,0,0.05,12.950000000000001,0)" xlink:href="#ak"/><use transform="matrix(0.05,0,0,0.05,22.950000000000003,0)" xlink:href="#al"/><use transform="matrix(0.05,0,0,0.05,26.900000000000002,0)" xlink:href="#ac"/><use transform="matrix(0.05,0,0,0.05,31.900000000000002,0)" xlink:href="#X"/><use transform="matrix(0.05,0,0,0.05,41.900000000000006,0)" xlink:href="#am"/><use transform="matrix(0.05,0,0,0.05,45.85000000000001,0)" xlink:href="#al"/><use transform="matrix(0.05,0,0,0.05,49.80000000000001,0)" xlink:href="#af"/><use transform="matrix(0.05,0,0,0.05,58.80000000000001,0)" xlink:href="#ac"/></g><path d="M117-194c89-4 53 116 60 194h-32v-121c0-31-8-49-39-48C34-167 62-67 57 0H25l-1-190h30c1 10-1 24 2 32 11-22 29-35 61-36" id="aw"/><g id="k"><use transform="matrix(0.05,0,0,0.05,0,0)" xlink:href="#al"/><use transform="matrix(0.05,0,0,0.05,3.95,0)" xlink:href="#aw"/><use transform="matrix(0.05,0,0,0.05,13.949999999999998,0)" xlink:href="#ac"/><use transform="matrix(0.05,0,0,0.05,18.95,0)" xlink:href="#ai"/></g><path d="M126-127c33 6 58 20 58 59 0 88-139 92-164 29-3-8-5-16-6-25l32-3c6 27 21 44 54 44 32 0 52-15 52-46 0-38-36-46-79-43v-28c39 1 72-4 72-42 0-27-17-43-46-43-28 0-47 15-49 41l-32-3c6-42 35-63 81-64 48-1 79 21 79 65 0 36-21 52-52 59" id="ax"/><path d="M33 0v-38h34V0H33" id="ay"/><g id="l"><use transform="matrix(0.05,0,0,0.05,0,0)" xlink:href="#ax"/><use transform="matrix(0.05,0,0,0.05,10,0)" xlink:href="#ay"/></g><path d="M30 0v-248h187v28H63v79h144v27H63v87h162V0H30" id="az"/><g id="m"><use transform="matrix(0.05,0,0,0.05,0,0)" xlink:href="#az"/><use transform="matrix(0.05,0,0,0.05,12,0)" xlink:href="#an"/><use transform="matrix(0.05,0,0,0.05,22,0)" xlink:href="#al"/><use transform="matrix(0.05,0,0,0.05,25.950000000000003,0)" xlink:href="#ac"/></g><path d="M0 4l72-265h28L28 4H0" id="aA"/><use transform="matrix(0.05,0,0,0.05,0,0)" xlink:href="#aA" id="n"/><path d="M140-251c81 0 123 46 123 126C263-53 228-8 163 1c7 30 30 48 69 40v23c-55 16-95-15-103-61C56-3 17-48 17-125c0-80 42-126 123-126zm0 227c63 0 89-41 89-101s-29-99-89-99c-61 0-89 39-89 99S79-25 140-24" id="aB"/><path d="M179-190L93 31C79 59 56 82 12 73V49c39 6 53-20 64-50L1-190h34L92-34l54-156h33" id="aC"/><g id="o"><use transform="matrix(0.05,0,0,0.05,0,0)" xlink:href="#aB"/><use transform="matrix(0.05,0,0,0.05,14,0)" xlink:href="#aa"/><use transform="matrix(0.05,0,0,0.05,24,0)" xlink:href="#X"/><use transform="matrix(0.05,0,0,0.05,34,0)" xlink:href="#ag"/><use transform="matrix(0.05,0,0,0.05,39.95,0)" xlink:href="#aC"/></g><path d="M115-194c53 0 69 39 70 98 0 66-23 100-70 100C84 3 66-7 56-30L54 0H23l1-261h32v101c10-23 28-34 59-34zm-8 174c40 0 45-34 45-75 0-40-5-75-45-74-42 0-51 32-51 76 0 43 10 73 51 73" id="aD"/><g id="p"><use transform="matrix(0.05,0,0,0.05,0,0)" xlink:href="#ac"/><use transform="matrix(0.05,0,0,0.05,5,0)" xlink:href="#ae"/><use transform="matrix(0.05,0,0,0.05,15,0)" xlink:href="#aD"/><use transform="matrix(0.05,0,0,0.05,25,0)" xlink:href="#am"/><use transform="matrix(0.05,0,0,0.05,28.950000000000003,0)" xlink:href="#X"/></g><g id="q"><use transform="matrix(0.05,0,0,0.05,0,0)" xlink:href="#an"/><use transform="matrix(0.05,0,0,0.05,10,0)" xlink:href="#ae"/><use transform="matrix(0.05,0,0,0.05,20,0)" xlink:href="#ac"/><use transform="matrix(0.05,0,0,0.05,25,0)" xlink:href="#ae"/></g><path d="M232-93c-1 65-40 97-104 97C67 4 28-28 28-90v-158h33c8 89-33 224 67 224 102 0 64-133 71-224h33v155" id="aE"/><g id="r"><use transform="matrix(0.05,0,0,0.05,0,0)" xlink:href="#aE"/><use transform="matrix(0.05,0,0,0.05,12.950000000000001,0)" xlink:href="#ab"/><use transform="matrix(0.05,0,0,0.05,22.950000000000003,0)" xlink:href="#an"/><use transform="matrix(0.05,0,0,0.05,32.95,0)" xlink:href="#ae"/><use transform="matrix(0.05,0,0,0.05,42.95,0)" xlink:href="#ac"/><use transform="matrix(0.05,0,0,0.05,47.95,0)" xlink:href="#X"/><use transform="matrix(0.05,0,0,0.05,57.95,0)" xlink:href="#an"/></g><path d="M266 0h-40l-56-210L115 0H75L2-248h35L96-30l15-64 43-154h32l59 218 59-218h35" id="aF"/><g id="s"><use transform="matrix(0.05,0,0,0.05,0,0)" xlink:href="#aF"/><use transform="matrix(0.05,0,0,0.05,16.95,0)" xlink:href="#ak"/><use transform="matrix(0.05,0,0,0.05,26.950000000000003,0)" xlink:href="#al"/><use transform="matrix(0.05,0,0,0.05,30.899999999999995,0)" xlink:href="#ac"/><use transform="matrix(0.05,0,0,0.05,35.9,0)" xlink:href="#X"/><use transform="matrix(0.05,0,0,0.05,45.9,0)" xlink:href="#am"/><use transform="matrix(0.05,0,0,0.05,49.85,0)" xlink:href="#al"/><use transform="matrix(0.05,0,0,0.05,53.800000000000004,0)" xlink:href="#af"/><use transform="matrix(0.05,0,0,0.05,62.800000000000004,0)" xlink:href="#ac"/></g><path d="M101-251c82-7 93 87 43 132L82-64C71-53 59-42 53-27h129V0H18c2-99 128-94 128-182 0-28-16-43-45-43s-46 15-49 41l-32-3c6-41 34-60 81-64" id="aG"/><path d="M127-220V0H93v-220H8v-28h204v28h-85" id="aH"/><path d="M9 0v-24l116-142H16v-24h144v24L44-24h123V0H9" id="aI"/><g id="t"><use transform="matrix(0.05,0,0,0.05,0,0)" xlink:href="#aG"/><use transform="matrix(0.05,0,0,0.05,10,0)" xlink:href="#ay"/><use transform="matrix(0.05,0,0,0.05,15,0)" xlink:href="#aH"/><use transform="matrix(0.05,0,0,0.05,23.950000000000003,0)" xlink:href="#ae"/><use transform="matrix(0.05,0,0,0.05,33.95,0)" xlink:href="#aD"/><use transform="matrix(0.05,0,0,0.05,43.95,0)" xlink:href="#am"/><use transform="matrix(0.05,0,0,0.05,47.900000000000006,0)" xlink:href="#X"/><use transform="matrix(0.05,0,0,0.05,57.900000000000006,0)" xlink:href="#al"/><use transform="matrix(0.05,0,0,0.05,61.85,0)" xlink:href="#aI"/><use transform="matrix(0.05,0,0,0.05,70.85000000000001,0)" xlink:href="#X"/></g><g id="u"><use transform="matrix(0.05,0,0,0.05,0,0)" xlink:href="#W"/><use transform="matrix(0.05,0,0,0.05,12.950000000000001,0)" xlink:href="#ah"/><use transform="matrix(0.05,0,0,0.05,25.900000000000002,0)" xlink:href="#aE"/><use transform="matrix(0.05,0,0,0.05,38.85,0)" xlink:href="#V"/></g><g id="v"><use transform="matrix(0.05,0,0,0.05,0,0)" xlink:href="#ah"/><use transform="matrix(0.05,0,0,0.05,12.950000000000001,0)" xlink:href="#az"/><use transform="matrix(0.05,0,0,0.05,24.950000000000003,0)" xlink:href="#ap"/><use transform="matrix(0.05,0,0,0.05,36.95,0)" xlink:href="#aH"/></g><path d="M205 0l-28-72H64L36 0H1l101-248h38L239 0h-34zm-38-99l-47-123c-12 45-31 82-46 123h93" id="aJ"/><g id="w"><use transform="matrix(0.05,0,0,0.05,0,0)" xlink:href="#aJ"/><use transform="matrix(0.05,0,0,0.05,12,0)" xlink:href="#Z"/><use transform="matrix(0.05,0,0,0.05,24,0)" xlink:href="#au"/></g><g id="x"><use transform="matrix(0.05,0,0,0.05,0,0)" xlink:href="#Z"/><use transform="matrix(0.05,0,0,0.05,12,0)" xlink:href="#aa"/><use transform="matrix(0.05,0,0,0.05,22,0)" xlink:href="#ab"/><use transform="matrix(0.05,0,0,0.05,32,0)" xlink:href="#ab"/><use transform="matrix(0.05,0,0,0.05,42,0)" xlink:href="#X"/><use transform="matrix(0.05,0,0,0.05,52,0)" xlink:href="#ac"/></g><g id="y"><use transform="matrix(0.05,0,0,0.05,0,0)" xlink:href="#ap"/><use transform="matrix(0.05,0,0,0.05,12,0)" xlink:href="#X"/><use transform="matrix(0.05,0,0,0.05,22,0)" xlink:href="#ag"/><use transform="matrix(0.05,0,0,0.05,27.950000000000003,0)" xlink:href="#Y"/><use transform="matrix(0.05,0,0,0.05,36.95,0)" xlink:href="#X"/><use transform="matrix(0.05,0,0,0.05,46.95,0)" xlink:href="#ag"/></g><path d="M96-169c-40 0-48 33-48 73s9 75 48 75c24 0 41-14 43-38l32 2c-6 37-31 61-74 61-59 0-76-41-82-99-10-93 101-131 147-64 4 7 5 14 7 22l-32 3c-4-21-16-35-41-35" id="aK"/><g id="z"><use transform="matrix(0.05,0,0,0.05,0,0)" xlink:href="#Z"/><use transform="matrix(0.05,0,0,0.05,12,0)" xlink:href="#X"/><use transform="matrix(0.05,0,0,0.05,22,0)" xlink:href="#ag"/><use transform="matrix(0.05,0,0,0.05,27.950000000000003,0)" xlink:href="#al"/><use transform="matrix(0.05,0,0,0.05,31.899999999999995,0)" xlink:href="#ai"/><use transform="matrix(0.05,0,0,0.05,41.9,0)" xlink:href="#an"/><use transform="matrix(0.05,0,0,0.05,51.900000000000006,0)" xlink:href="#al"/><use transform="matrix(0.05,0,0,0.05,55.85,0)" xlink:href="#aK"/><use transform="matrix(0.05,0,0,0.05,64.85,0)" xlink:href="#ae"/><use transform="matrix(0.05,0,0,0.05,74.85,0)" xlink:href="#am"/><use transform="matrix(0.05,0,0,0.05,78.8,0)" xlink:href="#am"/><use transform="matrix(0.05,0,0,0.05,82.75,0)" xlink:href="#aC"/></g><g id="A"><use transform="matrix(0.05,0,0,0.05,0,0)" xlink:href="#aK"/><use transform="matrix(0.05,0,0,0.05,9,0)" xlink:href="#ae"/><use transform="matrix(0.05,0,0,0.05,19,0)" xlink:href="#am"/><use transform="matrix(0.05,0,0,0.05,22.95,0)" xlink:href="#am"/><use transform="matrix(0.05,0,0,0.05,26.899999999999995,0)" xlink:href="#af"/></g><g id="B"><use transform="matrix(0.05,0,0,0.05,0,0)" xlink:href="#ah"/><use transform="matrix(0.05,0,0,0.05,12.950000000000001,0)" xlink:href="#az"/><use transform="matrix(0.05,0,0,0.05,24.950000000000003,0)" xlink:href="#ap"/><use transform="matrix(0.05,0,0,0.05,36.95,0)" xlink:href="#aH"/></g><path d="M177-190C167-65 218 103 67 71c-23-6-38-20-44-43l32-5c15 47 100 32 89-28v-30C133-14 115 1 83 1 29 1 15-40 15-95c0-56 16-97 71-98 29-1 48 16 59 35 1-10 0-23 2-32h30zM94-22c36 0 50-32 50-73 0-42-14-75-50-75-39 0-46 34-46 75s6 73 46 73" id="aL"/><g id="C"><use transform="matrix(0.05,0,0,0.05,0,0)" xlink:href="#W"/><use transform="matrix(0.05,0,0,0.05,12.950000000000001,0)" xlink:href="#ak"/><use transform="matrix(0.05,0,0,0.05,22.950000000000003,0)" xlink:href="#ae"/><use transform="matrix(0.05,0,0,0.05,32.95,0)" xlink:href="#aw"/><use transform="matrix(0.05,0,0,0.05,42.95,0)" xlink:href="#aL"/><use transform="matrix(0.05,0,0,0.05,52.95,0)" xlink:href="#X"/><use transform="matrix(0.05,0,0,0.05,62.95,0)" xlink:href="#an"/></g><path d="M155-56V0h-30v-56H8v-25l114-167h33v167h35v25h-35zm-30-156c-27 46-58 90-88 131h88v-131" id="aM"/><g id="D"><use transform="matrix(0.05,0,0,0.05,0,0)" xlink:href="#aM"/><use transform="matrix(0.05,0,0,0.05,10,0)" xlink:href="#ay"/></g><path d="M101-234c-31-9-42 10-38 44h38v23H63V0H32v-167H5v-23h27c-7-52 17-82 69-68v24" id="aN"/><g id="E"><use transform="matrix(0.05,0,0,0.05,0,0)" xlink:href="#ah"/><use transform="matrix(0.05,0,0,0.05,12.950000000000001,0)" xlink:href="#X"/><use transform="matrix(0.05,0,0,0.05,22.950000000000003,0)" xlink:href="#aN"/><use transform="matrix(0.05,0,0,0.05,27.950000000000003,0)" xlink:href="#am"/><use transform="matrix(0.05,0,0,0.05,31.900000000000002,0)" xlink:href="#X"/><use transform="matrix(0.05,0,0,0.05,41.900000000000006,0)" xlink:href="#aK"/><use transform="matrix(0.05,0,0,0.05,50.900000000000006,0)" xlink:href="#ac"/></g><g id="F"><use transform="matrix(0.05,0,0,0.05,0,0)" xlink:href="#W"/><use transform="matrix(0.05,0,0,0.05,12.950000000000001,0)" xlink:href="#ak"/><use transform="matrix(0.05,0,0,0.05,22.950000000000003,0)" xlink:href="#ae"/><use transform="matrix(0.05,0,0,0.05,32.95,0)" xlink:href="#aw"/><use transform="matrix(0.05,0,0,0.05,42.95,0)" xlink:href="#aL"/><use transform="matrix(0.05,0,0,0.05,52.95,0)" xlink:href="#X"/><use transform="matrix(0.05,0,0,0.05,62.95,0)" xlink:href="#af"/></g><g id="G"><use transform="matrix(0.05,0,0,0.05,0,0)" xlink:href="#al"/><use transform="matrix(0.05,0,0,0.05,3.95,0)" xlink:href="#aw"/></g><g id="H"><use transform="matrix(0.05,0,0,0.05,0,0)" xlink:href="#Z"/><use transform="matrix(0.05,0,0,0.05,12,0)" xlink:href="#aa"/><use transform="matrix(0.05,0,0,0.05,22,0)" xlink:href="#ab"/><use transform="matrix(0.05,0,0,0.05,32,0)" xlink:href="#ab"/><use transform="matrix(0.05,0,0,0.05,42,0)" xlink:href="#X"/><use transform="matrix(0.05,0,0,0.05,52,0)" xlink:href="#ac"/></g><g id="I"><use transform="matrix(0.05,0,0,0.05,0,0)" xlink:href="#aB"/><use transform="matrix(0.05,0,0,0.05,14,0)" xlink:href="#W"/></g><use transform="matrix(0.05,0,0,0.05,0,0)" xlink:href="#as" id="J"/><use transform="matrix(0.05,0,0,0.05,0,0)" xlink:href="#aG" id="K"/><use transform="matrix(0.05,0,0,0.05,0,0)" xlink:href="#ax" id="L"/><path d="M110-160c48 1 74 30 74 79 0 53-28 85-80 85-65 0-83-55-86-122-5-90 50-162 133-122 14 7 22 21 27 39l-31 6c-5-40-67-38-82-6-9 19-15 44-15 74 11-20 30-34 60-33zm-7 138c34 0 49-23 49-58s-16-56-50-56c-29 0-50 16-49 49 1 36 15 65 50 65" id="aO"/><g id="M"><use transform="matrix(0.05,0,0,0.05,0,0)" xlink:href="#aO"/><use transform="matrix(0.05,0,0,0.05,10,0)" xlink:href="#ay"/></g><g id="N"><use transform="matrix(0.05,0,0,0.05,0,0)" xlink:href="#aB"/><use transform="matrix(0.05,0,0,0.05,14,0)" xlink:href="#W"/></g><path d="M143 0L79-87 56-68V0H24v-261h32v163l83-92h37l-77 82L181 0h-38" id="aP"/><g id="O"><use transform="matrix(0.05,0,0,0.05,0,0)" xlink:href="#W"/><use transform="matrix(0.05,0,0,0.05,12.950000000000001,0)" xlink:href="#ak"/><use transform="matrix(0.05,0,0,0.05,22.950000000000003,0)" xlink:href="#X"/><use transform="matrix(0.05,0,0,0.05,32.95,0)" xlink:href="#aK"/><use transform="matrix(0.05,0,0,0.05,41.95,0)" xlink:href="#aP"/></g><g id="P"><use transform="matrix(0.05,0,0,0.05,0,0)" xlink:href="#ai"/><use transform="matrix(0.05,0,0,0.05,10,0)" xlink:href="#aw"/></g><g id="Q"><use transform="matrix(0.05,0,0,0.05,0,0)" xlink:href="#X"/><use transform="matrix(0.05,0,0,0.05,10,0)" xlink:href="#ae"/><use transform="matrix(0.05,0,0,0.05,20,0)" xlink:href="#aK"/><use transform="matrix(0.05,0,0,0.05,29,0)" xlink:href="#ak"/></g><g id="R"><use transform="matrix(0.05,0,0,0.05,0,0)" xlink:href="#af"/><use transform="matrix(0.05,0,0,0.05,9,0)" xlink:href="#X"/><use transform="matrix(0.05,0,0,0.05,19,0)" xlink:href="#ag"/><use transform="matrix(0.05,0,0,0.05,24.95,0)" xlink:href="#Y"/><use transform="matrix(0.05,0,0,0.05,33.95,0)" xlink:href="#X"/><use transform="matrix(0.05,0,0,0.05,43.95,0)" xlink:href="#ag"/></g><g id="S"><use transform="matrix(0.05,0,0,0.05,0,0)" xlink:href="#ad"/><use transform="matrix(0.05,0,0,0.05,14.950000000000001,0)" xlink:href="#ai"/><use transform="matrix(0.05,0,0,0.05,24.950000000000003,0)" xlink:href="#an"/><use transform="matrix(0.05,0,0,0.05,34.95,0)" xlink:href="#al"/><use transform="matrix(0.05,0,0,0.05,38.900000000000006,0)" xlink:href="#aN"/><use transform="matrix(0.05,0,0,0.05,43.900000000000006,0)" xlink:href="#aC"/></g><g id="T"><use transform="matrix(0.05,0,0,0.05,0,0)" xlink:href="#ak"/><use transform="matrix(0.05,0,0,0.05,10,0)" xlink:href="#X"/><use transform="matrix(0.05,0,0,0.05,20,0)" xlink:href="#ag"/><use transform="matrix(0.05,0,0,0.05,25.950000000000003,0)" xlink:href="#X"/></g><g id="U"><use transform="matrix(0.05,0,0,0.05,0,0)" xlink:href="#aJ"/><use transform="matrix(0.05,0,0,0.05,12,0)" xlink:href="#ab"/><use transform="matrix(0.05,0,0,0.05,22,0)" xlink:href="#ab"/><use transform="matrix(0.05,0,0,0.05,32,0)" xlink:href="#ag"/><use transform="matrix(0.05,0,0,0.05,37.95,0)" xlink:href="#ai"/><use transform="matrix(0.05,0,0,0.05,47.95,0)" xlink:href="#Y"/><use transform="matrix(0.05,0,0,0.05,56.95,0)" xlink:href="#ae"/><use transform="matrix(0.05,0,0,0.05,66.95,0)" xlink:href="#am"/></g></defs></g></svg>